<svg xmlns="http://www.w3.org/2000/svg" viewBox="0 0 737 251"><style>.a{fill:#FFF;}.b,.c{fill:#004990;}</style><path d="M29.2 248c-14 0-25.4-11.4-25.4-25.4V29c0-14 11.4-25.4 25.4-25.4h679.7c14 0 25.4 11.4 25.4 25.4v193.6c0 14-11.4 25.4-25.4 25.4H29.2z" class="a"/><path d="M708.8 6.3c12.5 0 22.7 10.2 22.7 22.7v193.6c0 12.5-10.2 22.7-22.7 22.7H29.2c-12.5 0-22.7-10.2-22.7-22.7V29c0-12.5 10.2-22.7 22.7-22.7H708.8M708.8 0.8H29.2c-15.6 0-28.2 12.7-28.2 28.2v193.6c0 15.6 12.7 28.2 28.2 28.2h679.7c15.6 0 28.2-12.7 28.2-28.2V29C737.1 13.4 724.4 0.8 708.8 0.8L708.8 0.8z" class="b"/><path d="M0.9 186.3v36.3c0 15.6 12.7 28.2 28.2 28.2h679.7c15.6 0 28.2-12.7 28.2-28.2v-36.3H0.9z" class="c"/><path d="M179.8 123.9l34.2-57.5h19.3l9.4 57.5h-15.5l-1.6-12.3h-22.3l-6.8 12.3H179.8zM224.1 100.7l-2.5-22.4h-0.2l-12.2 22.4H224.1z" class="c"/><path d="M301.4 81l-6.7 31.7c-0.8 3.9-1.4 7.7-1.8 11.2h-13.7l1.2-7h-0.2c-4.8 5.3-10.3 8-16.5 8 -4.2 0-7.5-1.4-9.9-4.3 -2.3-2.7-3.5-6.2-3.5-10.5 0-2.1 0.4-5.2 1.2-9.1l4-20h15.3l-4.1 20.1c-0.7 3.2-1 5.4-1 6.5 0 3.3 1.9 5 5.8 4.9 5.7-0.1 9.4-4 11-11.8l4.2-19.7H301.4z" class="c"/><path d="M306.2 91.4l1.8-10.4h8.5l2.1-9.3 15.6-4.2 -3 13.5h10.2l-1.8 10.4h-10.9l-2.6 11.9c-0.8 3.8-1.2 6.3-1.2 7.4 0 3.2 1.6 4.8 4.9 4.8 1 0 2.6-0.4 4.8-1.2l-1.6 9.8c-3.5 0.6-6.5 0.8-9.2 0.8 -4.1 0-7.3-1-9.6-3 -2.6-2.2-3.9-5.4-3.9-9.7 0-1.8 0.4-4.7 1.3-8.8l2.5-12H306.2z" class="c"/><path d="M391.1 99.2c0 8.6-2.6 15.1-7.8 19.5 -4.8 4.1-11.4 6.2-19.9 6.2 -7.5 0-13.2-1.9-17.1-5.8 -3.5-3.4-5.2-8-5.2-13.8 0-7.6 2.5-13.7 7.6-18.3 5.1-4.6 11.7-7 20.1-7 7 0 12.6 1.8 16.6 5.5C389.2 89 391.1 93.6 391.1 99.2zM375.8 99c0-5.7-2.6-8.6-7.7-8.6 -3.4 0-6.2 1.6-8.5 4.7 -2.1 2.9-3.1 6.2-3.1 9.8 0 2.9 0.7 5.2 2.2 6.9 1.5 1.7 3.4 2.6 5.9 2.6 3.5 0 6.2-1.4 8.2-4.1C374.8 107.6 375.8 103.8 375.8 99z" class="c"/><path d="M454.1 68.5l-3.6 11.8c-4-2.3-8.8-3.4-14.3-3.4 -7.2 0-12.7 2.2-16.5 6.7 -3.4 3.9-5 8.9-5 15 0 4.9 1.5 8.7 4.4 11.3 2.7 2.5 6.5 3.7 11.3 3.7 5.5 0 10.4-1.1 14.6-3.2l-1.7 12.3c-4.4 1.5-9.6 2.2-15.3 2.2 -9.1 0-16.3-2.5-21.5-7.5 -5.1-4.8-7.7-11.2-7.7-19.3 0-9.7 3.2-17.5 9.5-23.6 6.3-6.1 14.8-9.1 25.5-9.1C441.8 65.4 448.6 66.4 454.1 68.5z" class="c"/><path d="M449 123.9l13-61.7h15l-5.3 25.1h0.2c3.6-4.8 8.6-7.2 14.9-7.2 4.2 0 7.4 1.4 9.8 4.2 2.4 2.8 3.5 6.3 3.5 10.7 0 2.1-0.4 5.2-1.1 9.1l-3.9 20h-15.3l4.1-20.1c0.7-3.2 1-5.4 1-6.5 0-3.3-1.9-5-5.8-4.9 -5.7 0.1-9.4 4-11 11.8l-4.2 19.7H449z" class="c"/><path d="M544.8 112l-1.9 10.5c-5.3 1.6-10.3 2.4-15 2.4 -6.9 0-12.4-1.9-16.4-5.8 -3.8-3.6-5.7-8.2-5.7-13.8 0-6.1 1.9-11.6 5.7-16.4 4.7-5.9 11.4-8.9 20-8.9 6 0 10.7 1.5 14.1 4.4 3.8 3.2 5.7 8 5.7 14.2 0 2.2-0.4 4.9-1.1 8.1h-30.4c0.2 5.5 4.1 8.2 11.5 8.2C536.2 114.9 540.7 114 544.8 112zM520.8 98.3h18.2c0-5.6-2.4-8.3-7.2-8.3 -3 0-5.5 0.9-7.5 2.7C522.5 94.1 521.4 95.9 520.8 98.3z" class="c"/><path d="M591.2 112.1l-2.1 11.1c-3.3 1.1-7.5 1.6-12.7 1.6 -6.1 0-11-1.9-14.8-5.8 -3.6-3.7-5.4-8.3-5.4-13.8 0-7.1 2.6-13.1 7.7-18 5.2-4.9 11.8-7.3 19.9-7.3 4.4 0 8.9 1 13.5 2.9l-3.2 10.3c-3.4-1.5-6.5-2.2-9.6-2.2 -3.9 0-7 1.2-9.4 3.5 -2.5 2.5-3.7 5.9-3.7 10.2 0 2.6 0.9 4.8 2.8 6.6 1.9 1.8 4.3 2.7 7.4 2.7C585 113.9 588.2 113.3 591.2 112.1z" class="c"/><path d="M595.2 123.9l13.3-61.7h15l-7.9 36.9h0.2l14.2-18h16.9l-17.7 20.7 11.1 22.2h-16.5l-8.8-21.2h-0.2l-4.5 21.2H595.2z" class="c"/><path d="M187.7 30.8c6.8-7.5 22-11.3 32.2-11.3l1.3 3 -17.5 20.7L164.5 94.9l-27.1 42 -6.6 11.3c-0.9 1.9-2.1 4.1-3.9 5.3 -2.4 1.1-8.1 1.1-10.7 1.1 -6 0-7.3 0-8.6-0.9 -1.9-1.3-2.8-4-4.1-6.6 -4.1-8.7-11.5-27.5-11.5-36.9 0-3.2 1.9-4.7 4.3-6.4 4-2.8 9.6-6 14.5-6 3.8 0 4.1 3.2 5.3 6.2l3.8 8.8c0.6 1.5 2.3 6.8 4.3 6.8 1.9 0 4.1-4.3 4.9-5.6l43.5-64.5L187.7 30.8z" class="c"/><path d="M644.8 67.1c2.1 0 3.7 1.6 3.7 3.7 0 2.1-1.6 3.7-3.7 3.7 -2.1 0-3.8-1.6-3.8-3.7 0-2 1.7-3.7 3.8-3.7H644.8zM644.7 67.8c-1.6 0-2.8 1.3-2.8 2.9 0 1.6 1.2 2.9 2.9 2.9 1.6 0 2.8-1.3 2.8-2.9 0-1.6-1.2-2.9-2.8-2.9H644.7zM644.2 72.6h-0.9v-3.6c0.3-0.1 0.8-0.1 1.4-0.1 0.7 0 1 0.1 1.3 0.3 0.2 0.2 0.4 0.4 0.4 0.8 0 0.4-0.3 0.7-0.8 0.9v0c0.4 0.1 0.6 0.4 0.7 0.9 0.1 0.6 0.2 0.8 0.3 0.9h-0.9c-0.1-0.1-0.2-0.4-0.3-0.9 -0.1-0.4-0.3-0.6-0.8-0.6h-0.4V72.6zM644.2 70.6h0.4c0.5 0 0.8-0.2 0.8-0.5 0-0.3-0.2-0.6-0.8-0.6 -0.2 0-0.4 0-0.5 0V70.6z" class="c"/><path d="M322.9 136.5h3.8l13.5 30.8h-4.3l-3.3-7.4h-15.5l-3.3 7.4h-4.3L322.9 136.5zM324.8 142l-6.2 14h12.3L324.8 142z" class="b"/><path d="M356.9 151.1c1.2-2.5 2.7-5.4 7-5.4 4.7 0 7.7 4.3 7.7 10.9 0 6.8-3.2 11.2-8 11.2 -3.9 0-5.3-2.7-6.6-5.4v13h-3.6v-29.3h3.6V151.1zM365.8 163.5c1.4-1.4 1.9-3.5 1.9-7.2 0-5-1.7-7.6-5-7.6 -3.7 0-5.9 3-5.9 8.1 0 4.9 2.3 7.9 5.9 7.9C363.9 164.8 365 164.4 365.8 163.5z" class="b"/><path d="M374.7 150.4c0.8-1.9 2.1-4.8 8.7-4.8 7.8 0 7.8 4.1 7.8 6.2l0 10.3c0 2.6 0.1 2.8 1.7 2.9v2.4c-1.1 0.3-1.7 0.5-2.3 0.5 -2.8 0-3-2.3-3-4.1 -1.2 1.5-3.4 4.1-7.1 4.1 -3.7 0-6.5-3-6.5-6.9 0-1.7 0.7-3.4 1.9-4.7 1.5-1.5 3.6-2.3 7-2.7 3-0.3 3.4-0.5 4.7-1.8 0-2.6-0.9-3.2-4-3.2 -3.2 0-4.9 0.9-5.9 3.3L374.7 150.4zM387.5 154.5c-1.5 1.2-1.9 1.3-4.4 1.8 -2.4 0.4-3.5 0.9-4.5 2 -0.7 0.8-1.1 1.7-1.1 2.7 0 2.3 1.6 3.9 4 3.9 1.4 0 2.9-0.6 4.1-1.7 1.4-1.4 1.9-2.7 1.9-5.3V154.5z" class="b"/><path d="M400.1 150.3c1.1-2 2.5-4.6 5.6-4.6 0.4 0 1 0 1.5 0.1v3.7c-0.9-0.1-1.3-0.2-1.8-0.2 -3.1 0-5.3 2.3-5.3 5.5v12.5h-3.6v-21.1h3.6V150.3z" class="b"/><path d="M416 138.1v8.1h4.5v3h-4.5v12.8c0 2.2 0.4 2.9 1.9 2.9 0.5 0 1.1-0.1 2.3-0.4v3c-1.6 0.3-2.5 0.5-3.2 0.5 -3.3 0-4.6-1.1-4.6-3.9v-14.9h-3.8v-3h3.8v-5.5L416 138.1z" class="b"/><path d="M450.3 156.5c0 7-3.9 11.4-9.9 11.4 -5.7 0-9.7-4.6-9.7-11.3 0-6.5 4-11 9.7-11C446.3 145.6 450.3 150.1 450.3 156.5zM434.5 156.8c0 5.1 2.3 8 6.3 8 3.6 0 5.9-3 5.9-8.1 0-5.8-2.7-8.1-6.2-8.1C436.7 148.6 434.5 151.5 434.5 156.8z" class="b"/><path d="M458.6 149.2v18.1h-3.6v-18.1h-4.2v-3h4.2v-5.4c0-3.6 1.2-4.7 5-4.7 0.7 0 1.4 0 2.7 0.2v3c-0.9-0.1-1.3-0.1-1.6-0.1 -1.9 0-2.5 0.6-2.5 2.7v4.3h4.2v3H458.6z" class="b"/><path d="M473.5 136.5h21.3l-1.2 5.6h-12.7v6.4h11.7v5.6h-11.7v7.5h13l1.2 5.6h-21.7V136.5z" class="b"/><path d="M497.7 146.1h6.8l4.5 5.8 4.5-5.8h6.7l-7.8 10.2 8.4 10.9h-6.8l-5-6.4 -5 6.5h-6.8l8.4-10.8L497.7 146.1z" class="b"/><path d="M529.2 148.8c2-2.4 3.7-3.3 6.7-3.3 5.4 0 8.7 4.1 8.7 10.6 0 7.2-3.3 11.7-8.7 11.7 -2.9 0-4.6-0.8-6.7-3.2v10.9h-6.1v-29.3h6.1V148.8zM529.2 161.1c1.6 2 3 2.9 4.7 2.9 1 0 2.1-0.5 2.8-1.1 1.1-1.1 1.5-2.9 1.5-6.1 0-4.9-1.5-7.4-4.4-7.4 -1.8 0-3.2 0.8-4.6 2.8V161.1z" class="b"/><path d="M566.8 158.5h-14.1c0.2 3.6 1.5 5.3 4.4 5.3 1.9 0 3.5-1.1 4.9-3.3l4.2 2.4c-0.9 1.5-3.2 5-9.5 5 -8.6 0-10.5-7-10.5-11.3 0-6.7 4.1-11 10.3-11 6 0 10.3 4.4 10.3 10.8V158.5zM560.7 154.6c0-1.2 0.1-5.2-3.8-5.2 -4.2 0-4.1 4-4 5.2H560.7z" class="b"/><path d="M575.6 152.7c1.6-5.2 2.4-7.2 6.5-7.1v6.4c-0.5 0-0.9-0.1-1.3-0.1 -2.6 0-4.7 2-4.7 4.7v10.6h-6.1v-21.1h5.6V152.7z" class="b"/><path d="M585.7 146.1h6.1v21.1h-6.1V146.1zM585.7 136.5h6.1v5.7h-6.1V136.5z" class="b"/><path d="M615 161.2c0 1.1 0.6 1.9 1.7 1.9 0.3 0 0.5 0 0.9-0.1v3.9c-1.3 0.6-2.5 0.9-4 0.9 -2.7 0-4-1.1-4.6-3.9 -1.6 2.7-3.5 3.9-6.7 3.9 -4.1 0-6.8-2.6-6.8-6.6 0-6.3 6.2-6.8 8.7-7.1 2.6-0.2 3-0.3 4.7-1v-0.8c0-2-1.2-3.1-3.5-3.1 -1.8 0-3.3 1-4.1 2.7l-4.6-2.1c0.7-1.4 2-4.3 8.9-4.3 5.6 0 9.5 0.7 9.5 6.7V161.2zM608.9 155.7c-1 0.6-1.3 0.7-2.9 1.1 -3.1 0.7-4.2 1.8-4.2 4.1 0 1.8 1.1 2.9 2.9 2.9 2.4 0 4.2-1.8 4.2-4.2V155.7z" class="b"/><path d="M626.8 149.4c1.7-2.6 3.7-3.9 6.8-3.9 2.3 0 4 0.6 5.2 1.9 1.5 1.5 1.9 2.7 1.9 6.7v13.2h-6.2v-12c0-4.3-0.9-5.8-3.4-5.8 -2.6 0-4.4 2.2-4.4 5.2v12.6h-6.2v-21.1h6.2V149.4z" class="b"/><path d="M44.6 206h19.5v5.5H52.6v4.5h9.9v5.2h-9.9v10.5h-7.9V206z" class="a"/><path d="M68.5 231.6v-25.6h13.2c2.4 0 4.3 0.2 5.6 0.6 1.3 0.4 2.3 1.2 3.1 2.3 0.8 1.1 1.2 2.5 1.2 4.1 0 1.4-0.3 2.6-0.9 3.7 -0.6 1-1.4 1.9-2.5 2.5 -0.7 0.4-1.6 0.7-2.8 1 0.9 0.3 1.6 0.6 2.1 0.9 0.3 0.2 0.7 0.7 1.3 1.3 0.6 0.7 0.9 1.2 1.1 1.6l3.8 7.4h-8.9l-4.2-7.8c-0.5-1-1-1.7-1.4-2 -0.6-0.4-1.2-0.6-1.9-0.6h-0.7v10.4H68.5zM76.5 216.4h3.3c0.4 0 1.1-0.1 2.1-0.3 0.5-0.1 0.9-0.4 1.3-0.8 0.3-0.4 0.5-0.9 0.5-1.5 0-0.8-0.3-1.5-0.8-1.9 -0.5-0.4-1.5-0.7-3-0.7h-3.5V216.4z" class="a"/><path d="M96.2 206h21.2v5.5h-13.3v4.1h12.3v5.2h-12.3v5h13.6v5.8H96.2V206z" class="a"/><path d="M122 206h21.2v5.5h-13.3v4.1h12.3v5.2h-12.3v5h13.6v5.8h-21.6V206z" class="a"/><path d="M157.2 206h8.3l5.8 18.4 5.7-18.4h8l-9.5 25.6H166.9L157.2 206z" class="a"/><path d="M187.5 206h21.2v5.5h-13.3v4.1h12.3v5.2h-12.3v5h13.6v5.8h-21.6V206z" class="a"/><path d="M213.4 206h7.9v9h8.6v-9h7.9v25.6h-7.9v-10.3H221.3v10.4h-7.9V206z" class="a"/><path d="M243.4 206h7.9v25.6h-7.9V206z" class="a"/><path d="M274.1 221.1l6.9 2.1c-0.5 1.9-1.2 3.6-2.2 4.9 -1 1.3-2.2 2.3-3.7 2.9 -1.5 0.7-3.4 1-5.7 1 -2.8 0-5.1-0.4-6.8-1.2s-3.3-2.2-4.6-4.3c-1.3-2-1.9-4.6-1.9-7.8 0-4.2 1.1-7.5 3.4-9.8 2.3-2.3 5.4-3.4 9.6-3.4 3.2 0 5.8 0.7 7.6 2 1.8 1.3 3.2 3.3 4.1 6l-7 1.6c-0.2-0.8-0.5-1.4-0.8-1.7 -0.4-0.6-1-1.1-1.6-1.4 -0.6-0.3-1.4-0.5-2.1-0.5 -1.8 0-3.2 0.7-4.1 2.2 -0.7 1.1-1.1 2.7-1.1 5 0 2.8 0.4 4.8 1.3 5.8 0.9 1.1 2.1 1.6 3.6 1.6 1.5 0 2.7-0.4 3.4-1.3C273.2 224 273.7 222.7 274.1 221.1z" class="a"/><path d="M284.8 206h7.9v19.3h12.3v6.3h-20.2V206z" class="a"/><path d="M308.7 206h21.2v5.5H316.6v4.1h12.3v5.2H316.6v5h13.6v5.8h-21.6V206z" class="a"/><path d="M346.4 206h7.9v9h8.6v-9h7.9v25.6h-7.9v-10.3h-8.6v10.4h-7.9V206z" class="a"/><path d="M376.5 206h7.9v25.6h-7.9V206z" class="a"/><path d="M388.7 223.1l7.5-0.5c0.2 1.2 0.5 2.2 1 2.8 0.8 1 2 1.6 3.5 1.6 1.1 0 2-0.3 2.6-0.8 0.6-0.5 0.9-1.1 0.9-1.8 0-0.7-0.3-1.3-0.9-1.8 -0.6-0.5-1.9-1-4-1.5 -3.5-0.8-5.9-1.8-7.4-3.1 -1.5-1.3-2.2-2.9-2.2-4.9 0-1.3 0.4-2.6 1.1-3.7 0.8-1.2 1.9-2.1 3.4-2.8 1.5-0.7 3.6-1 6.3-1 3.3 0 5.8 0.6 7.5 1.8 1.7 1.2 2.7 3.2 3.1 5.8l-7.4 0.4c-0.2-1.2-0.6-2-1.2-2.5s-1.5-0.8-2.6-0.8c-0.9 0-1.6 0.2-2.1 0.6 -0.5 0.4-0.7 0.9-0.7 1.4 0 0.4 0.2 0.8 0.6 1.1 0.4 0.3 1.3 0.7 2.7 0.9 3.5 0.7 5.9 1.5 7.4 2.3 1.5 0.8 2.6 1.7 3.3 2.8 0.7 1.1 1 2.4 1 3.8 0 1.6-0.4 3.2-1.4 4.5 -0.9 1.4-2.2 2.4-3.8 3.1 -1.6 0.7-3.7 1.1-6.2 1.1 -4.4 0-7.4-0.8-9-2.5C389.9 227.9 388.9 225.7 388.7 223.1z" class="a"/><path d="M414.1 206h24v6.3h-8.1v19.3h-7.9v-19.3h-8.1V206z" class="a"/><path d="M439.5 218.8c0-4.2 1.2-7.4 3.5-9.8s5.6-3.5 9.7-3.5c4.3 0 7.5 1.1 9.8 3.4 2.3 2.3 3.5 5.5 3.5 9.6 0 3-0.5 5.4-1.5 7.4 -1 1.9-2.5 3.4-4.4 4.5 -1.9 1.1-4.3 1.6-7.1 1.6 -2.9 0-5.3-0.5-7.2-1.4 -1.9-0.9-3.4-2.4-4.6-4.4C440.1 224.3 439.5 221.8 439.5 218.8zM447.4 218.9c0 2.6 0.5 4.4 1.4 5.6 1 1.1 2.3 1.7 3.9 1.7 1.7 0 3-0.6 3.9-1.7 0.9-1.1 1.4-3.1 1.4-6 0-2.4-0.5-4.2-1.5-5.3 -1-1.1-2.3-1.7-4-1.7 -1.6 0-2.9 0.6-3.8 1.7C447.9 214.4 447.4 216.3 447.4 218.9z" class="a"/><path d="M470.4 231.6v-25.6h13.2c2.4 0 4.3 0.2 5.6 0.6 1.3 0.4 2.3 1.2 3.1 2.3 0.8 1.1 1.2 2.5 1.2 4.1 0 1.4-0.3 2.6-0.9 3.7 -0.6 1-1.4 1.9-2.5 2.5 -0.7 0.4-1.6 0.7-2.8 1 0.9 0.3 1.6 0.6 2.1 0.9 0.3 0.2 0.7 0.7 1.3 1.3 0.6 0.7 0.9 1.2 1.1 1.6l3.8 7.4h-8.9l-4.2-7.8c-0.5-1-1-1.7-1.4-2 -0.6-0.4-1.2-0.6-1.9-0.6h-0.7v10.4H470.4zM478.3 216.4h3.3c0.4 0 1.1-0.1 2.1-0.3 0.5-0.1 1-0.4 1.3-0.8 0.3-0.4 0.5-0.9 0.5-1.5 0-0.8-0.3-1.5-0.8-1.9 -0.5-0.4-1.5-0.7-3-0.7h-3.5V216.4z" class="a"/><path d="M493.9 206h8.8l5.2 8.6 5.2-8.6h8.7l-9.9 14.9v10.7h-7.9v-10.7L493.9 206z" class="a"/><path d="M536.3 231.6v-25.6h13.2c2.4 0 4.3 0.2 5.6 0.6 1.3 0.4 2.3 1.2 3.1 2.3 0.8 1.1 1.2 2.5 1.2 4.1 0 1.4-0.3 2.6-0.9 3.7 -0.6 1-1.4 1.9-2.5 2.5 -0.7 0.4-1.6 0.7-2.8 1 0.9 0.3 1.6 0.6 2.1 0.9 0.3 0.2 0.7 0.7 1.3 1.3 0.6 0.7 0.9 1.2 1.1 1.6l3.8 7.4h-8.9l-4.2-7.8c-0.5-1-1-1.7-1.4-2 -0.6-0.4-1.2-0.6-1.9-0.6h-0.7v10.4H536.3zM544.3 216.4h3.3c0.4 0 1.1-0.1 2.1-0.3 0.5-0.1 1-0.4 1.3-0.8 0.3-0.4 0.5-0.9 0.5-1.5 0-0.8-0.3-1.5-0.8-1.9 -0.5-0.4-1.5-0.7-3-0.7h-3.5V216.4z" class="a"/><path d="M564 206h21.2v5.5H571.9v4.1h12.3v5.2H571.9v5h13.7v5.8h-21.6V206z" class="a"/><path d="M589.8 206h13.1c2.9 0 5 0.7 6.4 2 1.4 1.4 2.1 3.3 2.1 5.8 0 2.6-0.8 4.6-2.3 6.1 -1.6 1.5-3.9 2.2-7.1 2.2h-4.3v9.5h-7.9V206zM597.7 216.9h1.9c1.5 0 2.6-0.3 3.2-0.8s0.9-1.2 0.9-2c0-0.8-0.3-1.5-0.8-2 -0.5-0.6-1.5-0.8-3-0.8h-2.3V216.9z" class="a"/><path d="M614.6 218.8c0-4.2 1.2-7.4 3.5-9.8 2.3-2.3 5.6-3.5 9.7-3.5 4.3 0 7.5 1.1 9.8 3.4 2.3 2.3 3.5 5.5 3.5 9.6 0 3-0.5 5.4-1.5 7.4 -1 1.9-2.5 3.4-4.4 4.5 -1.9 1.1-4.3 1.6-7.1 1.6 -2.9 0-5.3-0.5-7.2-1.4 -1.9-0.9-3.4-2.4-4.6-4.4C615.2 224.3 614.6 221.8 614.6 218.8zM622.6 218.9c0 2.6 0.5 4.4 1.4 5.6 1 1.1 2.3 1.7 3.9 1.7 1.7 0 3-0.6 3.9-1.7 0.9-1.1 1.4-3.1 1.4-6 0-2.4-0.5-4.2-1.5-5.3 -1-1.1-2.3-1.7-3.9-1.7 -1.6 0-2.9 0.6-3.8 1.7C623 214.4 622.6 216.3 622.6 218.9z" class="a"/><path d="M645.5 231.6v-25.6h13.2c2.4 0 4.3 0.2 5.6 0.6 1.3 0.4 2.3 1.2 3.1 2.3 0.8 1.1 1.2 2.5 1.2 4.1 0 1.4-0.3 2.6-0.9 3.7 -0.6 1-1.4 1.9-2.5 2.5 -0.7 0.4-1.6 0.7-2.8 1 0.9 0.3 1.6 0.6 2.1 0.9 0.3 0.2 0.7 0.7 1.3 1.3 0.6 0.7 0.9 1.2 1.1 1.6l3.8 7.4h-8.9l-4.2-7.8c-0.5-1-1-1.7-1.4-2 -0.6-0.4-1.2-0.6-1.9-0.6h-0.7v10.4H645.5zM653.5 216.4h3.3c0.4 0 1.1-0.1 2.1-0.3 0.5-0.1 1-0.4 1.3-0.8 0.3-0.4 0.5-0.9 0.5-1.5 0-0.8-0.3-1.5-0.8-1.9 -0.5-0.4-1.5-0.7-2.9-0.7h-3.5V216.4z" class="a"/><path d="M671.1 206h24v6.3h-8.1v19.3h-7.9v-19.3H671.1V206z" class="a"/></svg>