<svg xmlns="http://www.w3.org/2000/svg" width="792" height="792" viewBox="0 0 792 792"><rect y="-0.6" width="791.5" height="792.6" fill="#C4C5C5"/><path d="M594.8 450.2c4.7-33.1 0.2-38.5-14.7-67.3 -2.5-4.3-8.3-16-13.4-19.3 -0.7-0.4-2.4-3.4-3.6-8.9 -5.9-28.2-14.8-44.5-17.3-49.8 -9.3-20.3-28.1-40.6-49.3-44.4 -33.4-6-66.9-11.8-100.5-11.5h-0.2c-33.6-0.3-67.2 5.5-100.5 11.5 -21.2 3.8-40 24.1-49.3 44.4 -2.4 5.3-11.4 21.7-17.3 49.8 -1.2 5.6-2.9 8.5-3.6 8.9 -5.1 3.3-11 15-13.4 19.3 -14.9 28.8-19.5 34.2-14.7 67.3 2.4 16.5 5.3 21.2 9.4 42.1 1.6 8.3-5.1 16 5.2 17.7 0.3 0.1 0.5 0.2 0.8 0.3 1.4 0.8 2.9 3.3 3.2 5 0.6 3.7 0.1 7.7 0.2 11.5 0.1 10.5 4.5 15.2 15 15.6 8 0.3 27.5 0 35.5 0 18.8 0 21.1-1.9 21.8-20.4 0-0.3 0.3-1.5 1.8-1.4 29.5 2 65.8 3.8 105.1 3.8 0.3 0 0.6 0 0.9 0h0.2c0.3 0 0.6 0 0.9 0 39.3 0 75.6-1.8 105.1-3.7 1.5-0.1 1.7 1.1 1.8 1.4 0.8 18.5 3 20.4 21.8 20.4 8 0 27.5 0.3 35.5 0 10.6-0.4 14.9-5.1 15-15.6 0-3.8-0.4-7.7 0.2-11.5 0.3-1.7 1.8-4.1 3.2-5 0.3-0.1 0.5-0.2 0.8-0.3 10.2-1.7 3.5-9.4 5.2-17.7C589.5 471.3 592.4 466.7 594.8 450.2zM244.3 461.8c-17.2-0.2-30.1-13.2-30-30.3 0.1-17 13.2-30 30.3-30 17 0.1 30 13.1 30 30.3C274.6 448.8 261.2 462 244.3 461.8zM435.8 490.8c-8.4 0.9-17 2.5-39.9 2.5 -0.1 0-0.1 0-0.2 0 -22.9 0-31.5-1.7-39.9-2.5 -21.9-2.3-38.2-20.3-36.6-42.5 0.1-1.2 3-3.5 4.3-3.5 23.4 0 42.3 1.9 72.1 1.9h0.2c29.8 0 48.7-1.9 72.1-1.9 1.3 0 4.2 2.3 4.3 3.5C474 470.5 457.7 488.5 435.8 490.8zM397.8 340.8v0c-0.3 0-0.6 0-0.9 0 -0.3 0-0.6 0-1 0v0h-0.2v0c-0.3 0-0.7 0-1 0 -0.3 0-0.6 0-0.9 0v0c-47 0.1-99.6 6-146.7 13.3 3.4-30.5 19.1-56.9 22.1-61 4.7-6.4 12.5-9.7 18.1-10.9 19.7-4.4 45-6.7 64.7-7.7 14.2-0.7 28.4-1.1 42.6-1.2 0.3 0 0.6 0 1 0h0.2c0.3 0 0.6 0 1 0 14.2 0.1 28.4 0.6 42.7 1.2 19.7 1 45 3.2 64.7 7.7 5.7 1.3 13.4 4.6 18.1 10.9 3 4.1 18.7 30.4 22.1 61C497.3 346.8 444.8 340.9 397.8 340.8zM547.3 461.8c-16.9 0.2-30.3-13-30.2-30 0-17.2 13-30.2 30-30.3 17 0 30.2 13 30.3 30C577.4 448.5 564.4 461.6 547.3 461.8z" fill="#222427"/></svg>