<svg xmlns="http://www.w3.org/2000/svg" width="300" height="225" viewBox="0 0 300.1 225.1"><style>.a{fill:#D4D4D4;}</style><path d="M150.1 225.1c-48.8 0-97.7 0-146.5 0.1C0.6 225.1 0 224.5 0 221.6 0.1 148.9 0.1 76.2 0 3.6 0 0.6 0.6 0 3.6 0c97.7 0.1 195.3 0.1 293 0 3 0 3.6 0.6 3.6 3.6 -0.1 72.7-0.1 145.3 0 218 0 3-0.6 3.6-3.6 3.6C247.7 225 198.9 225.1 150.1 225.1zM150.6 158.1c19 0 38 0 57 0 7.4 0 8.5-1.1 8.5-8.3 0-22.5 0-45 0-67.5 0-8-1.3-9.2-9.4-9.2 -19 0-38-0.1-57 0.1 -4.1 0-7-1.1-8.9-4.9 -1.8-3.6-4.6-6.1-9-6.1 -5.8 0-11.7-0.4-17.5 0.2 -2.6 0.3-6 2.1-7.2 4.3 -2.8 5.1-6.5 6.8-12.1 6.6 -7.6-0.3-8.9 1.2-8.9 9.1 0 22.5 0 45 0 67.5 0 7.2 1.1 8.3 8.5 8.3C113.2 158.1 131.9 158.1 150.6 158.1z" class="a"/><path d="M151 88c15.3 0.1 27.8 12.4 27.8 27.5 0 15-12.9 28.1-28 28.2 -14.9 0.1-27.8-13-27.6-28.4C123.2 100.4 135.9 88 151 88z" class="a"/><path d="M105.1 116.2c0 9.6 0 19.3 0 28.9 0 5.1-0.7 5.7-5.8 5.8 -1.5 0-3 0-4.5 0 -3.4 0.1-4.7-1.7-4.7-4.9 0-20 0-39.9 0-59.9 0-3.6 1.5-5 5.1-5.2 9.5-0.4 10-0.1 10 9.3C105.1 98.9 105.1 107.5 105.1 116.2z" class="a"/><path d="M195.6 87.2c1.7 0 3.4-0.3 5 0.1 1.2 0.4 2.9 1.6 3 2.6 0.4 3.4 0.9 7.2-0.1 10.4 -1.5 4.8-6.2 2.4-9.6 2.7 -2.5 0.2-5.9 0.9-6.5-2.8 -0.5-3.4-0.3-7 0.1-10.4 0.1-1 1.9-2.2 3.1-2.5 1.5-0.4 3.3-0.1 5-0.1C195.6 87.2 195.6 87.2 195.6 87.2z" fill="#D5D5D5"/></svg>