<svg class="carfax-icon" xmlns="http://www.w3.org/2000/svg" xmlns:xlink="http://www.w3.org/1999/xlink" x="0" y="0" viewBox="43 25 410 130" enable-background="new 0 0 410 130" xml:space="preserve">
	<title>SHOW ME THE 1 OWNER CARFAX</title>
	<path class="show-me-the" d="M157.69 70.86v1.37c0 2.96 0.82 5.2 4 5.2 3.23 0 4.16-2.41 4.16-4.65 0-8.43-16.81-3.72-16.81-18.34 0-6.24 3.34-11.5 12.81-11.5 9.2 0 12.48 4.65 12.48 10.68v0.93h-8.87c0-1.86-0.22-3.23-0.77-4.11 -0.55-0.93-1.42-1.37-2.79-1.37 -2.3 0-3.67 1.37-3.67 4.22 0 8.16 16.81 4.05 16.81 17.85 0 8.87-4.93 12.43-13.36 12.43 -6.68 0-12.87-2.02-12.87-10.18v-2.52H157.69z"/>
	<path class="show-me-the" d="M179.48 43.7h9.2v14.62h7.34V43.7h9.2v39.1h-9.2V66.1h-7.34v16.7h-9.2V43.7z"/>
	<path class="show-me-the" d="M223.78 83.56c-12.1 0-13.74-7.88-13.74-20.31 0-12.43 1.64-20.31 13.74-20.31 13.03 0 13.74 9.47 13.74 20.31C237.52 74.09 236.81 83.56 223.78 83.56zM223.72 77.43c3.72 0 4.27-3.45 4.27-14.18 0-10.73-0.55-14.18-4.27-14.18 -3.61 0-4.16 3.45-4.16 14.18C219.56 73.98 220.11 77.43 223.72 77.43z"/>
	<path class="show-me-the" d="M239.16 43.7h9.2l3.4 27.82h0.11l4.05-27.81h8.54l4.38 27.82h0.11l3.28-27.81h8.87l-6.79 39.1h-10.19l-4-27.76h-0.11l-3.78 27.76h-10.18L239.16 43.7z"/>
	<path class="show-me-the" stroke="#231F20" d="M323.8 46.66h-0.11l-11.23 36.14h-2.3l-11.22-36.14h-0.11v36.14h-2.3V43.7h3.72l11.12 35.15h0.11l10.84-35.15h3.78v39.1h-2.3V46.66z"/>
	<path class="show-me-the" stroke="#231F20" d="M332.4 43.7h18.67v2.08h-16.37V61.39h15.28v2.08h-15.28v17.25h16.86v2.08h-19.16V43.7z"/>
	<path class="show-me-the" stroke="#231F20" d="M374.01 45.78h-10.4v-2.08h23.11v2.08h-10.4v37.01h-2.3V45.78z"/>
	<path class="show-me-the" stroke="#231F20" d="M390.16 43.7h2.3v17.14h17.14V43.7h2.3v39.1h-2.3V62.92H392.46v19.88h-2.3V43.7z"/>
	<path class="show-me-the" stroke="#231F20" d="M416.39 43.7h18.67v2.08h-16.37V61.39h15.28v2.08h-15.28v17.25h16.86v2.08h-19.16V43.7z"/>
	<path fill-rule="evenodd" clip-rule="evenodd" fill="#FFFFFF" stroke="#231F20" stroke-width="2.74" d="M438.11 148.42c0 2.72-2.26 4.92-5.04 4.92H115.94c-2.78 0-5.04-2.2-5.04-4.92V96.94c0-2.72 2.26-4.92 5.04-4.92h317.14c2.78 0 5.04 2.2 5.04 4.92V148.42z"/>
	<rect x="383.64" y="96.57" fill="#FFFFFF" stroke="#231F20" stroke-width="1.37" width="49.79" height="52.08"/><rect x="169.41" y="96.64" fill="#231F20" stroke="#231F20" stroke-width="1.37" width="49.79" height="52.08"/>
	<rect x="222.8" y="96.64" fill="#231F20" stroke="#231F20" stroke-width="1.37" width="49.79" height="52.08"/><rect x="276.53" y="96.64" fill="#231F20" stroke="#231F20" stroke-width="1.37" width="49.79" height="52.08"/>
	<rect x="330.26" y="96.64" fill="#231F20" stroke="#231F20" stroke-width="1.37" width="49.79" height="52.08"/>
	<rect x="115.68" y="96.64" fill="#231F20" stroke="#231F20" stroke-width="1.37" width="49.79" height="52.08"/>
	<path fill="#FFFFFF" d="M141.75 141.45c-10.61 0-16.27-7.85-16.27-18.44 0-11.5 6.73-18.42 16.32-18.42 8.78 0 12.25 3.77 14.7 10.5l-8.98 3.53c-1.28-3.33-2.5-5.43-5.76-5.43 -4.13 0-5.92 4.15-5.92 9.82 0 5.48 1.74 9.82 6.03 9.82 3.11 0 4.44-1.69 6.38-5.07l8.36 4.46C154.21 136.91 150.22 141.45 141.75 141.45z"/>
	<path fill="#FFFFFF" d="M197.4 126.33h-5.92l0.66-2.35c1.28-4.54 1.84-6.52 2.3-8.92 0.46 2.4 1.02 4.33 2.3 8.92L197.4 126.33zM212.46 140.48l-12.96-35.71h-10l-12.96 35.71h10.61l1.94-6.32h10.72l1.94 6.32H212.46z"/>
	<path fill="#FFFFFF" d="M252.7 116.83c0 2.56-1.27 3.98-4.49 3.98h-5.82v-7.82h5.98C251.47 112.99 252.7 114.58 252.7 116.83zM263.26 140.65l-7.15-13.63c3.93-1.78 6.43-5.09 6.43-10.45 0-8.47-5.56-11.64-13.94-11.64h-15.97v35.71h9.74v-12.06h3.98l5.82 12.06H263.26z"/>
	<path fill="#FFFFFF" d="M297.12 113.34v4.98h11.17v8.36h-11.17v13.97h-9.85v-35.71h28.27v8.41H297.12z"/>
	<path fill="#FFFFFF" d="M357.75 126.61h-5.92l0.66-2.34c1.28-4.53 1.84-6.52 2.29-8.92 0.46 2.4 1.02 4.33 2.3 8.92L357.75 126.61zM372.81 140.76l-12.96-35.71h-10l-12.96 35.71h10.62l1.94-6.32h10.71l1.94 6.32H372.81z"/>
	<path fill="#231F20" d="M413.53 149.13l-1.58-2.42c-1.4-2.23-2.79-4.62-3.74-6.55 -0.89 1.88-2.35 4.31-3.8 6.55l-1.74 2.42h-12.13l11.75-16.28 -12.34-17.57h12.56l2.18 3.45c1.4 2.23 2.9 4.62 3.74 6.5 0.89-1.88 2.4-4.26 3.8-6.5l2.18-3.45h12.28l-12.34 17.36 11.58 16.48H413.53z"/>
	<path fill="#231F20" stroke="#231F20" stroke-width="0.16" d="M451.05 95.65c0 1.31-0.45 2.44-1.35 3.36 -0.9 0.93-2 1.39-3.29 1.39s-2.39-0.46-3.31-1.38 -1.37-2.04-1.37-3.35c0-1.34 0.46-2.48 1.36-3.4 0.91-0.93 2.02-1.39 3.32-1.39 1.29 0 2.39 0.47 3.29 1.39C450.6 93.19 451.05 94.32 451.05 95.65zM450.31 95.65c0-1.1-0.38-2.06-1.15-2.87 -0.77-0.81-1.67-1.21-2.71-1.21 -1.1 0-2.04 0.4-2.82 1.21 -0.77 0.81-1.16 1.77-1.16 2.89 0 1.12 0.39 2.07 1.16 2.86 0.77 0.79 1.7 1.19 2.78 1.19 1.06 0 1.98-0.4 2.75-1.2C449.93 97.72 450.31 96.77 450.31 95.65zM449.02 94.41c0 0.53-0.19 0.95-0.56 1.26 -0.37 0.31-0.79 0.46-1.26 0.46l1.71 2.28h-1.05l-1.7-2.26h-0.97v2.27h-0.84v-5.64h2.76c0.62 0 1.09 0.16 1.42 0.47C448.85 93.54 449.02 93.94 449.02 94.41zM448.13 94.41c0-0.57-0.43-0.85-1.29-0.85h-1.65v1.83h1.71C447.72 95.38 448.13 95.06 448.13 94.41z"/>
	<radialGradient id="SVGID_1_" cx="92.91" cy="75.72" r="49.38" gradientUnits="userSpaceOnUse">
		<stop offset="0" stop-color="#1F76BB"/>
		<stop offset="0.44" stop-color="#1E75B9"/>
		<stop offset="0.6" stop-color="#1C71B2"/>
		<stop offset="0.72" stop-color="#196AA7"/>
		<stop offset="0.81" stop-color="#146096"/>
		<stop offset="0.89" stop-color="#0E5380"/>
		<stop offset="0.96" stop-color="#064465"/>
		<stop offset="1" stop-color="#003851"/>
	</radialGradient>
	<polygon fill="url(#SVGID_1_)" stroke="#1F76BB" stroke-width="1.04" points="102.73 26.35 92.9 33.75 83.08 26.35 76.84 36.94 64.94 33.87 63.23 46.05 51.05 47.75 54.13 59.66 43.53 65.9 50.94 75.72 43.53 85.54 54.13 91.78 51.05 103.69 63.23 105.4 64.94 117.58 76.84 114.5 83.08 125.1 92.9 117.69 102.73 125.1 108.97 114.5 120.87 117.58 122.58 105.4 134.77 103.69 131.68 91.78 142.28 85.54 134.87 75.72 142.28 65.9 131.68 59.66 134.77 47.75 122.58 46.05 120.87 33.87 108.97 36.94 "/>
	<path opacity="0.4" fill="#FFFFFF" d="M92.15 110.98c-9.73 0-23.01-4.52-31.6-14.4 6.86 10.12 18.45 16.77 31.6 16.77 14.33 0 26.83-7.91 33.36-19.61C118.08 104.11 105.5 110.98 92.15 110.98z"/>
	<path opacity="0.7" fill="#FFFFFF" d="M93.03 40.37c12.27 0 23.87 6.1 30.83 15.37 -6.13-10.48-17.64-17.54-30.83-17.54 -13.21 0-24.71 7.08-30.84 17.55C69.15 46.48 80.75 40.37 93.03 40.37z"/>
	<g opacity="0.47">
		<linearGradient id="SVGID_2_" gradientUnits="userSpaceOnUse" x1="65.75" y1="45.44" x2="114.28" y2="93.97">
			<stop offset="0" stop-color="#FFFFFF"/>
			<stop offset="0.27" stop-color="#AEAEAE"/>
			<stop offset="0.53" stop-color="#636363"/>
			<stop offset="0.75" stop-color="#2E2E2E"/>
			<stop offset="0.91" stop-color="#0C0C0C"/>
			<stop offset="1" stop-color="#000000"/>
		</linearGradient>
		<path fill="url(#SVGID_2_)" d="M92.43 38.1c-19.26 0-35.79 17.56-35.79 36.83 0 4.54 0.89 8.87 2.47 12.84 12.91-0.45 20.59-1.38 33.97-9.18 9.65-5.63 23.65-10.04 36.09-6.21C128.35 53.84 111.17 38.1 92.43 38.1z"/>
	</g>
	<g opacity="0.2">
		<path fill="#010101" d="M80.53 99.98v-9.29h5.95V62.06h-7.03v-8.2c4.46-0.21 6.77-1.22 8.99-3.39h11.88v40.23h6.18v9.29H80.53z"/>
	</g>
	<path fill="#FFFFFF" d="M79.75 99.21v-9.29h5.95V61.28h-7.03v-8.2c4.46-0.2 6.76-1.22 8.99-3.38h11.88v40.23h6.19v9.29H79.75z"/>
</svg>