<svg class="carfax-icon" viewBox="0 0 181 61" xmlns="http://www.w3.org/2000/svg" xmlns:svg="http://www.w3.org/2000/svg">
  <title>SHOW ME THE CARFAX</title>
  <path class="show-me-the" d="m6.85 16.78l0 0.82c0 1.78 0.49 3.13 2.4 3.13 1.94 0 2.5-1.45 2.5-2.8 0-5.07-10.1-2.24-10.1-11.02 0-3.75 2.01-6.91 7.7-6.91 5.53 0 7.5 2.8 7.5 6.41l0 0.56 -5.33 0c0-1.12-0.13-1.94-0.46-2.47 -0.33-0.56-0.85-0.82-1.68-0.82 -1.38 0-2.2 0.82-2.2 2.53 0 4.9 10.1 2.43 10.1 10.72 0 5.33-2.96 7.47-8.02 7.47 -4.01 0-7.73-1.22-7.73-6.12l0-1.51 5.32 0 0 0.01zM19.94 0.47 19.94 0.47" />
  <path class="show-me-the" d="m19.94 0.47l5.53 0 0 8.78 4.4 0 0-8.78 5.53 0 0 23.48 -5.53 0 0-10.03 -4.41 0 0 10.03 -5.53 0 0-23.48 0.01 0z" />
  <path class="show-me-the" d="m46.55 24.41c-7.27 0-8.26-4.74-8.26-12.2 0-7.47 0.99-12.2 8.26-12.2 7.83 0 8.26 5.69 8.26 12.2 -0.01 6.51-0.44 12.2-8.26 12.2zm-0.04-3.68c2.24 0 2.57-2.07 2.57-8.52 0-6.45-0.33-8.52-2.56-8.52 -2.17 0-2.5 2.07-2.5 8.52 -0.01 6.45 0.32 8.52 2.49 8.52z" />
  <path class="show-me-the" d="m55.79 0.47l5.53 0 2.04 16.71 0.07 0 2.43-16.71 5.13 0 2.63 16.71 0.07 0 1.97-16.71 5.33 0 -4.08 23.48 -6.12 0 -2.4-16.68 -0.07 0 -2.27 16.68 -6.12 0 -4.14-23.48z" />
  <path class="show-me-the" d="m105.8 2.24l-0.06 0 -6.74 21.71 -1.38 0 -6.74-21.71 -0.07 0 0 21.71 -1.38 0 0-23.48 2.24 0 6.68 21.12 0.06 0 6.51-21.11 2.27 0 0 23.48 -1.38 0 0-21.72 -0.01 0z" stroke-width="0.48" stroke="#231F20" />
  <path class="show-me-the" d="m110.96 0.47l11.22 0 0 1.25 -9.84 0 0 9.38 9.18 0 0 1.25 -9.18 0 0 10.36 10.13 0 0 1.25 -11.51 0 0-23.49z" stroke-width="0.48" stroke="#231F20" />
  <path class="show-me-the" d="m135.48 1.72l-6.25 0 0-1.25 13.88 0 0 1.25 -6.25 0 0 22.23 -1.38 0 0-22.23z" stroke-width="0.48" stroke="#231F20" />
  <path class="show-me-the" d="m145.18 0.47l1.38 0 0 10.3 10.3 0 0-10.3 1.38 0 0 23.48 -1.38 0 0-11.94 -10.29 0 0 11.94 -1.38 0 0-23.48 -0.01 0z" stroke-width="0.48" stroke="#231F20" />
  <path class="show-me-the" d="m160.94 0.47l11.22 0 0 1.25 -9.84 0 0 9.38 9.18 0 0 1.25 -9.18 0 0 10.36 10.13 0 0 1.25 -11.51 0 0-23.49z" stroke-width="0.48" stroke="#231F20" />
  <path d="m174.13 57.72c0 1.44-1.2 2.6-2.67 2.6l-168.07 0c-1.47 0-2.67-1.16-2.67-2.6l0-27.28c0-1.44 1.2-2.61 2.67-2.61l168.07 0c1.47 0 2.67 1.17 2.67 2.61l0 27.28 0 0z" stroke-width="1.45" stroke="#231F20" fill="#FFFFFF" clip-rule="evenodd" fill-rule="evenodd"/>
  <rect height="27.6" width="26.39" stroke-width="0.73" stroke="#231F20" fill="#FFFFFF" y="30.24" x="145.26"/>
  <rect height="27.6" width="26.39" stroke-width="0.73" stroke="#231F20" fill="#231F20" y="30.28" x="31.73"/>
  <rect height="27.6" width="26.39" stroke-width="0.73" stroke="#231F20" fill="#231F20" y="30.28" x="60.02"/>
  <rect height="27.6" width="26.39" stroke-width="0.73" stroke="#231F20" fill="#231F20" y="30.28" x="88.5"/>
  <rect height="27.6" width="26.39" stroke-width="0.73" stroke="#231F20" fill="#231F20" y="30.28" x="116.97"/>
  <rect height="27.6" width="26.39" stroke-width="0.73" stroke="#231F20" fill="#231F20" y="30.28" x="3.25"/>
  <path d="m17.07 54.03c-5.62 0-8.62-4.16-8.62-9.77 0-6.1 3.57-9.76 8.65-9.76 4.65 0 6.49 2 7.79 5.57l-4.76 1.87c-0.68-1.76-1.32-2.88-3.05-2.88 -2.19 0-3.14 2.2-3.14 5.2 0 2.9 0.92 5.21 3.19 5.21 1.65 0 2.35-0.9 3.38-2.69l4.43 2.36c-1.27 2.48-3.38 4.89-7.87 4.89zM46.56 46.02 46.56 46.02" fill="#FFFFFF"/>
  <path d="m46.56 46.02l-3.14 0 0.35-1.24c0.68-2.4 0.98-3.45 1.22-4.73 0.24 1.27 0.54 2.3 1.22 4.73l0.35 1.24zm7.98 7.49l-6.87-18.93 -5.3 0 -6.87 18.93 5.62 0 1.03-3.35 5.68 0 1.03 3.35 5.68 0z" fill="#FFFFFF"/>
  <path d="m75.86 40.98c0 1.36-0.68 2.11-2.38 2.11l-3.09 0 0-4.14 3.17 0c1.65 0 2.3 0.84 2.3 2.03zm5.6 12.62l-3.79-7.22c2.08-0.94 3.41-2.7 3.41-5.54 0-4.49-2.95-6.17-7.39-6.17l-8.46 0 0 18.93 5.16 0 0-6.39 2.11 0 3.09 6.39 5.87 0z" fill="#FFFFFF"/>
  <path d="m99.41 39.13l0 2.64 5.92 0 0 4.43 -5.92 0 0 7.4 -5.22 0 0-18.92 14.98 0 0 4.46 -9.76 0 0-0.01z" fill="#FFFFFF"/>
  <path d="m131.54 46.17l-3.14 0 0.35-1.24c0.68-2.4 0.97-3.46 1.22-4.73 0.25 1.27 0.54 2.29 1.22 4.73l0.35 1.24zm7.98 7.49l-6.87-18.93 -5.3 0 -6.87 18.93 5.63 0 1.03-3.35 5.68 0 1.03 3.35 5.67 0z" fill="#FFFFFF"/>
  <path d="m161.1 58.1l-0.83-1.28c-0.74-1.18-1.48-2.45-1.98-3.47 -0.47 1-1.24 2.29-2.01 3.47l-0.92 1.28 -6.43 0 6.23-8.63 -6.54-9.31 6.66 0 1.15 1.83c0.74 1.18 1.54 2.45 1.98 3.44 0.47-0.99 1.27-2.26 2.01-3.44l1.16-1.83 6.51 0 -6.54 9.2 6.14 8.74 -6.59 0z" fill="#231F20"/>
  <path d="m180.99 29.76c0 0.7-0.24 1.29-0.72 1.78 -0.48 0.49-1.06 0.74-1.74 0.74 -0.68 0-1.27-0.24-1.75-0.73 -0.49-0.49-0.73-1.08-0.73-1.78 0-0.71 0.24-1.31 0.72-1.8 0.48-0.49 1.07-0.74 1.76-0.74 0.68 0 1.26 0.25 1.74 0.74 0.48 0.49 0.72 1.08 0.72 1.79zm-0.39 0c0-0.58-0.2-1.09-0.61-1.52 -0.41-0.43-0.89-0.64-1.44-0.64 -0.59 0-1.08 0.21-1.49 0.64 -0.41 0.43-0.61 0.94-0.61 1.53 0 0.59 0.2 1.1 0.62 1.52 0.41 0.42 0.9 0.63 1.47 0.63 0.56 0 1.05-0.21 1.46-0.64 0.39-0.42 0.6-0.93 0.6-1.52zm-0.69-0.66c0 0.28-0.1 0.5-0.29 0.67 -0.2 0.16-0.42 0.25-0.67 0.25l0.91 1.21 -0.56 0 -0.9-1.2 -0.51 0 0 1.2 -0.45 0 0-2.99 1.46 0c0.33 0 0.58 0.08 0.75 0.25s0.26 0.36 0.26 0.61zm-0.47 0c0-0.3-0.23-0.45-0.69-0.45l-0.87 0 0 0.97 0.9 0c0.44 0 0.66-0.18 0.66-0.52z" stroke-width="0.09" stroke="#231F20" fill="#231F20"/>
</svg>
