<svg viewBox="0 0 301 226" xmlns="http://www.w3.org/2000/svg" xml:space="preserve" style="fill-rule:evenodd;clip-rule:evenodd;stroke-linejoin:round;stroke-miterlimit:2"><path d="M0 167.331C0 112.701.075 58.13 0 3.6 0 .6.6 0 3.6 0c97.7 0 195.3.1 293 0 3 0 3.5.583 3.5 3.583a79100.42 79100.42 0 0 0-.056 163.748h.056v47.67h-.009l.009 6.599c0 3-.493 3.5-3.493 3.5-48.9-.2-97.707 0-146.507 0-48.8 0-97.721-.1-146.521 0-3-.1-3.579-.6-3.579-3.5v-54.269Zm150.6-9.231h57c7.4 0 8.5-1.1 8.5-8.3V82.3c0-8-1.3-9.2-9.4-9.2-19 0-38-.1-57 .1-4.1 0-7-1.1-8.9-4.9-1.8-3.6-4.6-6.1-9-6.1-5.8 0-11.7-.4-17.5.2-2.6.3-6 2.1-7.2 4.3-2.8 5.1-6.5 6.8-12.1 6.6-7.6-.3-8.9 1.2-8.9 9.1v67.5c0 7.2 1.1 8.3 8.5 8.3 18.6-.1 37.3-.1 56-.1Z" style="fill:#d4d4d4"/><path d="M151 88c15.3.1 27.8 12.4 27.8 27.5 0 15-12.9 28.1-28 28.2-14.9.1-27.8-13-27.6-28.4 0-14.9 12.7-27.3 27.8-27.3ZM105.1 116.2v28.9c0 5.1-.7 5.7-5.8 5.8h-4.5c-3.4.1-4.7-1.7-4.7-4.9V86.1c0-3.6 1.5-5 5.1-5.2 9.5-.4 10-.1 10 9.3-.1 8.7-.1 17.3-.1 26Z" style="fill:#d4d4d4;fill-rule:nonzero"/><path d="M192.267 87.3h6.827c3.265 0 4.354 1.37 4.354 3.593 0 3.582.05 4.166.05 7.519 0 4.8-3.669 4.736-7.928 4.736s-8.179.42-8.179-4.296c0-3.436.095-4.459.095-7.895 0-1.807 1.11-3.657 4.781-3.657Z" style="fill:#d5d5d5;fill-rule:nonzero"/></svg>